
<svg width="109px" height="109px" viewBox="0 0 109 109" version="1.1" xmlns="http://www.w3.org/2000/svg" xmlns:xlink="http://www.w3.org/1999/xlink">
    <g id="Page-1" stroke="none" stroke-width="1" fill="none" fill-rule="evenodd" stroke-linecap="round" stroke-linejoin="round">
        <g id="Group-Copy" transform="translate(-11.000000, -10.000000)" stroke-width="15">
            <path d="M87.9398691,106.727322 C102.284293,98.7759587 112,83.4377979 112,65.8209784 C112,42.4220186 94.8599331,23.0429785 72.499575,19.6531867 C70.2165733,19.3070875 67.8791527,19.1276682 65.5,19.1276682 C56.8685629,19.1276682 48.7864038,21.4891835 41.8593277,25.6038906 C41.0677498,26.0740906 40.2912554,26.5671843 39.5307484,27.082264 C27.1451898,35.470813 19,49.6907358 19,65.8209784 C19,71.1558621 19.8909828,76.2817805 21.5316774,81.0568753 C26.6190525,95.8632256 38.9146199,107.29654 54.2067381,111.127668" id="Oval" stroke="#FF5100" transform="translate(65.500000, 65.127668) rotate(140.000000) translate(-65.500000, -65.127668) "></path>
            <path d="M89.8107033,41.5 L112.310703,49.5" id="Line-2" stroke="#30C811"></path>
            <path d="M86.8107033,41.5 L106.25,24.5" id="Line-2" stroke="#30C811"></path>
            <path d="M86.8107033,41.5 L76.8107033,18.5" id="Line-2" stroke="#30C811"></path>
        </g>
    </g>
</svg>